<?xml version="1.0" standalone="no"?>
<!DOCTYPE svg PUBLIC "-//W3C//DTD SVG 1.1//EN" "http://www.w3.org/Graphics/SVG/1.1/DTD/svg11.dtd" >
<svg xmlns="http://www.w3.org/2000/svg">
<metadata>Generated by IcoMoon</metadata>
<defs>
<font id="SizingSuiteV2" horiz-adv-x="1024">
<font-face units-per-em="1024" ascent="960" descent="-64" />
<missing-glyph horiz-adv-x="1024" />
<glyph unicode="&#x20;" horiz-adv-x="512" d="" />
<glyph unicode="&#xe900;" glyph-name="home-dark" horiz-adv-x="1245" d="M1082.742-62.27v441.981l-462.045 364.281-462.045-364.281v-441.981h361.583v311.421h200.856v-311.421h361.652zM66.352 387.044l554.344 437.068 557.665-439.766 67.044 84.964-165.016 130.145v328.995h-212.549v-161.418l-244.445 192.692-621.942-490.413 64.899-82.266z" />
<glyph unicode="&#xe901;" glyph-name="home-white" horiz-adv-x="1245" d="M1082.742-62.27v441.981l-462.045 364.281-462.045-364.281v-441.981h361.583v311.421h200.856v-311.421h361.652zM66.352 387.044l554.344 437.068 557.665-439.766 67.044 84.964-165.016 130.145v328.995h-212.549v-161.418l-244.445 192.692-621.942-490.413 64.899-82.266z" />
<glyph unicode="&#xe902;" glyph-name="control-valve-dark" d="M76.117 238.99v0zM76.117 239.047l-0.114 0.057 0.114 0.114 0.057-0.114-0.057-0.057zM511.317 602.567l-228.124-1.195 0.74-134.315 456.192 2.446-0.74 134.315-228.068-1.252zM283.193 601.372l456.306 2.446 0.626-142.734-456.306-2.446-0.626 142.734zM698.311 683.292l-36.295-0.341h-36.352c-0.068-0.020-0.147-0.031-0.228-0.031s-0.159 0.011-0.234 0.032l0.006-0.001-228.523-1.707h-94.891c-0.019 0-0.042 0-0.065 0-5.327 0-9.671-4.208-9.89-9.481l-0.001-0.020-2.162-70.827 221.525 0.683 221.867 1.195-2.788 70.827c-0.279 5.242-4.598 9.387-9.885 9.387-0.045 0-0.089 0-0.134-0.001h-21.838zM289.242 681.108l443.329 2.399 0.435-80.44-443.329-2.399-0.435 80.44zM853.333 99.556c0.963 0.335 2.073 0.529 3.229 0.529 1.801 0 3.492-0.47 4.957-1.294l-0.051 0.026-94.549 54.215c-8.092 4.987-17.898 7.942-28.394 7.942-24.178 0-44.693-15.678-51.935-37.423l-0.112-0.386c-18.4-55.146-60.537-97.936-113.964-116.849l-1.293-0.399zM867.783 95.289c3.138-1.687 5.235-4.947 5.235-8.697 0-0.043 0-0.085-0.001-0.127v0.006l-1.081 178.005-0.74 129.479c0.001-0.083 0.002-0.18 0.002-0.278 0-5.738-2.832-10.815-7.175-13.909l-0.052-0.035c-2.697-1.867-6.037-2.982-9.639-2.982-2.438 0-4.757 0.511-6.855 1.432l0.11-0.043-103.481 44.26c-6.347 2.694-10.938 8.418-11.99 15.307l-0.014 0.11c-0.192 1.053-0.302 2.264-0.302 3.501 0 5.976 2.567 11.353 6.658 15.087l0.016 0.014c2 1.883 3.245 4.548 3.245 7.503 0 0.082-0.001 0.164-0.003 0.246v-0.012 20.537l-462.962-2.56v-20.537c-0.002-0.067-0.003-0.147-0.003-0.226 0-4.494 3.030-8.281 7.159-9.428l0.069-0.016 16.498-7.566c7.579-2.981 12.848-10.232 12.857-18.715v-0.001l-2.276-41.927c0.003-0.226 0.005-0.494 0.005-0.761 0-29.785-24.146-53.931-53.931-53.931-13.866 0-26.51 5.233-36.065 13.832l0.049-0.043c-15.196 13.185-34.252 22.304-55.26 25.468l-0.605 0.075c-9.73 1.69-17.039 10.056-17.067 20.136v0.003l1.536-275.342c-0.001 0.081-0.002 0.177-0.002 0.273 0 7.631 4.233 14.274 10.479 17.709l0.105 0.053c2.808 1.689 6.198 2.688 9.821 2.688 4.14 0 7.975-1.305 11.118-3.525l-0.060 0.041 105.358-68.836c62.848-41.129 139.828-65.597 222.523-65.597 0.669 0 1.338 0.002 2.007 0.005h-0.103c80.845 0.292 149.34 52.845 173.48 125.623l0.372 1.296c7.334 22.128 27.838 37.809 52.005 37.809 10.491 0 20.292-2.955 28.616-8.078l-0.237 0.136zM152.348 577.707l-81.806-0.455 3.3-652.117 81.863 0.398zM80.043 577.195l-81.863-0.398 3.356-652.174 81.806 0.455zM1024.512 589.483l-81.863-0.455 3.356-652.117 81.806 0.398zM951.467 589.483l-81.863-0.455 3.356-652.117 81.806 0.398zM358.4 960h307.2v-284.444h-307.2v284.444z" />
<glyph unicode="&#xe903;" glyph-name="control-valve-white" d="M76.117 238.99v0zM76.117 239.047l-0.114 0.057 0.114 0.114 0.057-0.114-0.057-0.057zM511.317 602.567l-228.124-1.195 0.74-134.315 456.192 2.446-0.74 134.315-228.068-1.252zM283.193 601.372l456.306 2.446 0.626-142.734-456.306-2.446-0.626 142.734zM698.311 683.292l-36.295-0.341h-36.352c-0.068-0.020-0.147-0.031-0.228-0.031s-0.159 0.011-0.234 0.032l0.006-0.001-228.523-1.707h-94.891c-0.019 0-0.042 0-0.065 0-5.327 0-9.671-4.208-9.89-9.481l-0.001-0.020-2.162-70.827 221.525 0.683 221.867 1.195-2.788 70.827c-0.279 5.242-4.598 9.387-9.885 9.387-0.045 0-0.089 0-0.134-0.001h-21.838zM289.242 681.108l443.329 2.399 0.435-80.44-443.329-2.399-0.435 80.44zM853.333 99.556c0.963 0.335 2.073 0.529 3.229 0.529 1.801 0 3.492-0.47 4.957-1.294l-0.051 0.026-94.549 54.215c-8.092 4.987-17.898 7.942-28.394 7.942-24.178 0-44.693-15.678-51.935-37.423l-0.112-0.386c-18.4-55.146-60.537-97.936-113.964-116.849l-1.293-0.399zM867.783 95.289c3.138-1.687 5.235-4.947 5.235-8.697 0-0.043 0-0.085-0.001-0.127v0.006l-1.081 178.005-0.74 129.479c0.001-0.083 0.002-0.18 0.002-0.278 0-5.738-2.832-10.815-7.175-13.909l-0.052-0.035c-2.697-1.867-6.037-2.982-9.639-2.982-2.438 0-4.757 0.511-6.855 1.432l0.11-0.043-103.481 44.26c-6.347 2.694-10.938 8.418-11.99 15.307l-0.014 0.11c-0.192 1.053-0.302 2.264-0.302 3.501 0 5.976 2.567 11.353 6.658 15.087l0.016 0.014c2 1.883 3.245 4.548 3.245 7.503 0 0.082-0.001 0.164-0.003 0.246v-0.012 20.537l-462.962-2.56v-20.537c-0.002-0.067-0.003-0.147-0.003-0.226 0-4.494 3.030-8.281 7.159-9.428l0.069-0.016 16.498-7.566c7.579-2.981 12.848-10.232 12.857-18.715v-0.001l-2.276-41.927c0.003-0.226 0.005-0.494 0.005-0.761 0-29.785-24.146-53.931-53.931-53.931-13.866 0-26.51 5.233-36.065 13.832l0.049-0.043c-15.196 13.185-34.252 22.304-55.26 25.468l-0.605 0.075c-9.73 1.69-17.039 10.056-17.067 20.136v0.003l1.536-275.342c-0.001 0.081-0.002 0.177-0.002 0.273 0 7.631 4.233 14.274 10.479 17.709l0.105 0.053c2.808 1.689 6.198 2.688 9.821 2.688 4.14 0 7.975-1.305 11.118-3.525l-0.060 0.041 105.358-68.836c62.848-41.129 139.828-65.597 222.523-65.597 0.669 0 1.338 0.002 2.007 0.005h-0.103c80.845 0.292 149.34 52.845 173.48 125.623l0.372 1.296c7.334 22.128 27.838 37.809 52.005 37.809 10.491 0 20.292-2.955 28.616-8.078l-0.237 0.136zM152.348 577.707l-81.806-0.455 3.3-652.117 81.863 0.398zM80.043 577.195l-81.863-0.398 3.356-652.174 81.806 0.455zM1024.512 589.483l-81.863-0.455 3.356-652.117 81.806 0.398zM951.467 589.483l-81.863-0.455 3.356-652.117 81.806 0.398zM358.4 960h307.2v-284.444h-307.2v284.444z" />
<glyph unicode="&#xe904;" d="M120.889 758.727c0.163 0.695 0.256 1.493 0.256 2.314 0 5.844-4.737 10.581-10.581 10.581-3.795 0-7.123-1.998-8.991-4.999l-0.026-0.045c-24.806-36.916-43.599-80.175-53.761-126.661l-0.454-2.477c-31.516-154.852 70.201-216.178 137.5-336.668 64.284-115.029 21.902-245.077-50.176-348.103-1.15-1.668-1.837-3.733-1.837-5.958 0-5.844 4.737-10.581 10.581-10.581 2.696 0 5.156 1.008 7.024 2.668l-0.011-0.009c98.816 86.983 192.512 203.321 189.326 329.956-5.12 204.117-255.488 284.672-218.852 489.984z" />
<glyph unicode="&#xe905;" d="M457.273 758.727c0.127 0.615 0.2 1.322 0.2 2.045 0 5.844-4.737 10.581-10.581 10.581-3.683 0-6.927-1.882-8.822-4.737l-0.024-0.039c-24.846-36.912-43.675-80.168-53.872-126.657l-0.457-2.48c-31.516-154.852 70.201-216.178 137.5-336.668 64.284-115.029 21.902-245.077-50.176-348.103-1.208-1.697-1.932-3.811-1.932-6.095 0-5.844 4.737-10.581 10.581-10.581 2.768 0 5.287 1.063 7.173 2.802l-0.007-0.007c98.759 86.983 192.455 203.321 189.269 329.956-4.836 204.117-255.147 284.672-218.852 489.984z" />
<glyph unicode="&#xe906;" d="M813.511 524.288c0.106 0.477 0.167 1.024 0.167 1.585 0 4.21-3.413 7.623-7.623 7.623-2.687 0-5.049-1.39-6.406-3.49l-0.018-0.030c-17.702-26.365-31.128-57.252-38.414-90.439l-0.328-1.778c-22.756-110.763 50.176-154.624 98.304-240.754 45.966-82.261 15.701-175.275-35.897-248.889-0.805-1.19-1.286-2.657-1.286-4.237 0-4.21 3.413-7.623 7.623-7.623 1.936 0 3.704 0.722 5.048 1.911l-0.008-0.007c70.599 62.236 137.614 145.408 135.339 235.975-3.641 145.749-182.67 203.378-156.501 350.151z" />
<glyph unicode="&#xe907;" d="M901.632 755.2c0-109.903-89.094-198.997-198.997-198.997s-198.997 89.094-198.997 198.997c0 109.903 89.094 198.997 198.997 198.997s198.997-89.094 198.997-198.997z" />
<glyph unicode="&#xe908;" d="M655.986 624.356c-11.89 0-10.638 0-10.809 10.809v135.282c0 15.588-16.043 10.354-16.27 64.91v37.888c0 10.809 0 10.809 5.689 10.809s5.234 0 5.689-10.809v-48.697c0-6.087 10.809-6.087 10.809 0v48.697c0 10.809 0 10.809 5.689 10.809s5.689 0 5.689-10.809v-48.697c0-6.087 10.581-6.087 10.809 0v48.697c0 10.809 0 10.809 5.689 10.809s5.689 0 5.689-10.809v-37.888c0-54.556-16.213-49.323-16.213-64.91v-135.282c-1.65-10.809-2.844-10.809-12.459-10.809z" />
<glyph unicode="&#xe909;" d="M755.2 624.356c-10.809 0-10.809 0-10.809 10.809v93.070c0 14.734-15.189-7.566-15.189 88.747 0 63.829 36.807 80.725 36.807 56.036v-237.852c0-10.809 0-10.809-10.809-10.809z" />
<glyph unicode="&#xe90a;" glyph-name="csg-fb-white" d="M120.889 758.727c0.163 0.695 0.256 1.493 0.256 2.314 0 5.844-4.737 10.581-10.581 10.581-3.795 0-7.123-1.998-8.991-4.999l-0.026-0.045c-24.806-36.916-43.599-80.175-53.761-126.661l-0.454-2.477c-31.516-154.852 70.201-216.178 137.5-336.668 64.284-115.029 21.902-245.077-50.176-348.103-1.15-1.668-1.837-3.733-1.837-5.958 0-5.844 4.737-10.581 10.581-10.581 2.696 0 5.156 1.008 7.024 2.668l-0.011-0.009c98.816 86.983 192.512 203.321 189.326 329.956-5.12 204.117-255.488 284.672-218.852 489.984zM457.273 758.727c0.127 0.615 0.2 1.322 0.2 2.045 0 5.844-4.737 10.581-10.581 10.581-3.683 0-6.927-1.882-8.822-4.737l-0.024-0.039c-24.846-36.912-43.675-80.168-53.872-126.657l-0.457-2.48c-31.516-154.852 70.201-216.178 137.5-336.668 64.284-115.029 21.902-245.077-50.176-348.103-1.208-1.697-1.932-3.811-1.932-6.095 0-5.844 4.737-10.581 10.581-10.581 2.768 0 5.287 1.063 7.173 2.802l-0.007-0.007c98.759 86.983 192.455 203.321 189.269 329.956-4.836 204.117-255.147 284.672-218.852 489.984zM813.511 524.288c0.106 0.477 0.167 1.024 0.167 1.585 0 4.21-3.413 7.623-7.623 7.623-2.687 0-5.049-1.39-6.406-3.49l-0.018-0.030c-17.702-26.365-31.128-57.252-38.414-90.439l-0.328-1.778c-22.756-110.763 50.176-154.624 98.304-240.754 45.966-82.261 15.701-175.275-35.897-248.889-0.805-1.19-1.286-2.657-1.286-4.237 0-4.21 3.413-7.623 7.623-7.623 1.936 0 3.704 0.722 5.048 1.911l-0.008-0.007c70.599 62.236 137.614 145.408 135.339 235.975-3.641 145.749-182.67 203.378-156.501 350.151zM702.635 954.311c-109.966 0-199.111-89.145-199.111-199.111s89.145-199.111 199.111-199.111c109.966 0 199.111 89.145 199.111 199.111v0c0 109.966-89.145 199.111-199.111 199.111v0zM683.008 835.47c0-54.556-16.213-49.323-16.213-64.91v-135.396c0-10.809-1.308-10.809-10.809-10.809-11.89 0-10.638 0-10.809 10.809v135.282c0 15.588-16.043 10.354-16.27 64.91v37.888c0 10.809 0 10.809 5.689 10.809s5.234 0 5.689-10.809v-48.697c0-6.087 10.809-6.087 10.809 0v48.697c0 10.809 0 10.809 5.689 10.809s5.689 0 5.689-10.809v-48.697c0-6.087 10.581-6.087 10.809 0v48.697c0 10.809 0 10.809 5.689 10.809s5.689 0 5.689-10.809zM766.009 635.164c0-10.809 0-10.809-10.809-10.809s-10.809 0-10.809 10.809v93.070c0 14.734-15.189-7.566-15.189 88.747 0 63.829 36.807 80.725 36.807 56.036z" />
<glyph unicode="&#xe90b;" d="M109.511 758.727c0.163 0.695 0.256 1.493 0.256 2.314 0 5.844-4.737 10.581-10.581 10.581-3.795 0-7.123-1.998-8.991-4.999l-0.026-0.045c-24.806-36.916-43.599-80.175-53.761-126.661l-0.454-2.477c-31.516-154.852 70.201-216.178 137.5-336.668 64.284-115.029 21.902-245.077-50.176-348.103-1.15-1.668-1.837-3.733-1.837-5.958 0-5.844 4.737-10.581 10.581-10.581 2.696 0 5.156 1.008 7.024 2.668l-0.011-0.009c98.816 86.983 192.512 203.321 189.326 329.956-5.12 204.117-255.488 284.672-218.852 489.984z" />
<glyph unicode="&#xe90c;" d="M445.895 758.727c0.127 0.615 0.2 1.322 0.2 2.045 0 5.844-4.737 10.581-10.581 10.581-3.683 0-6.927-1.882-8.822-4.737l-0.024-0.039c-24.846-36.912-43.675-80.168-53.872-126.657l-0.457-2.48c-31.516-154.852 70.201-216.178 137.5-336.668 64.284-115.029 21.902-245.077-50.176-348.103-1.208-1.697-1.932-3.811-1.932-6.095 0-5.844 4.737-10.581 10.581-10.581 2.768 0 5.287 1.063 7.173 2.802l-0.007-0.007c98.759 86.983 192.455 203.321 189.269 329.956-4.836 204.117-255.147 284.672-218.852 489.984z" />
<glyph unicode="&#xe90d;" d="M802.133 524.288c0.106 0.477 0.167 1.024 0.167 1.585 0 4.21-3.413 7.623-7.623 7.623-2.687 0-5.049-1.39-6.406-3.49l-0.018-0.030c-17.702-26.365-31.128-57.252-38.414-90.439l-0.328-1.778c-22.756-110.763 50.176-154.624 98.304-240.754 45.966-82.261 15.701-175.275-35.897-248.889-0.805-1.19-1.286-2.657-1.286-4.237 0-4.21 3.413-7.623 7.623-7.623 1.936 0 3.704 0.722 5.048 1.911l-0.008-0.007c70.599 62.236 137.614 145.408 135.339 235.975-3.641 145.749-182.67 203.378-156.501 350.151z" />
<glyph unicode="&#xe90e;" d="M890.254 755.2c0-109.903-89.094-198.997-198.997-198.997s-198.997 89.094-198.997 198.997c0 109.903 89.094 198.997 198.997 198.997s198.997-89.094 198.997-198.997z" />
<glyph unicode="&#xe90f;" d="M802.133 795.022h-76.629v76.857c-0.032 5.768-4.699 10.435-10.464 10.468h-53.479c-5.768-0.032-10.435-4.699-10.468-10.464v-76.86h-76.516c-5.768-0.032-10.435-4.699-10.468-10.464v-53.422c0.064-5.744 4.719-10.379 10.465-10.411h76.746v-76.743c0.032-5.768 4.699-10.435 10.464-10.468h53.479c5.768 0.032 10.435 4.699 10.468 10.464v76.746h76.402c5.788 0.032 10.468 4.732 10.468 10.524 0 0 0 0 0 0v0 53.419c-0.096 5.719-4.739 10.323-10.465 10.354h-0.003z" />
<glyph unicode="&#xe910;" glyph-name="csg-healthcare-white" d="M112.128 758.784c0.137 0.636 0.215 1.368 0.215 2.117 0 5.812-4.712 10.524-10.524 10.524-3.704 0-6.962-1.914-8.837-4.807l-0.025-0.041c-24.626-36.641-43.296-79.572-53.419-125.704l-0.454-2.467c-31.346-153.6 69.746-214.812 136.533-334.393 63.886-114.29 21.788-243.484-49.835-345.771-1.191-1.683-1.905-3.777-1.905-6.038 0-5.812 4.712-10.524 10.524-10.524 2.731 0 5.219 1.040 7.090 2.746l-0.008-0.007c98.076 86.471 191.147 201.956 188.018 327.794-5.234 202.695-253.724 282.681-217.372 486.571zM446.236 758.784c0.155 0.677 0.244 1.455 0.244 2.253 0 5.812-4.712 10.524-10.524 10.524-3.761 0-7.061-1.973-8.922-4.94l-0.026-0.044c-24.588-36.615-43.254-79.501-53.415-125.578l-0.459-2.478c-31.289-153.6 69.746-214.812 136.533-334.393 63.829-114.29 21.788-243.484-49.835-345.771-1.191-1.683-1.905-3.777-1.905-6.038 0-5.812 4.712-10.524 10.524-10.524 2.731 0 5.219 1.040 7.090 2.746l-0.008-0.007c98.076 86.471 191.147 201.956 187.733 327.794-4.779 202.581-253.383 282.567-217.031 486.457zM800.085 525.995c0.111 0.485 0.174 1.042 0.174 1.614 0 4.179-3.388 7.566-7.566 7.566-2.666 0-5.009-1.378-6.357-3.461l-0.018-0.030c-17.578-26.189-30.922-56.863-38.186-89.818l-0.328-1.773c-22.357-109.966 49.892-153.6 97.678-238.933 45.511-81.692 15.531-174.080-35.669-247.239-1.139-1.311-1.833-3.035-1.833-4.921 0-4.154 3.368-7.522 7.522-7.522 2.268 0 4.302 1.004 5.681 2.592l0.008 0.009c70.087 61.781 136.533 144.384 134.428 234.325-3.755 144.441-181.532 201.785-155.534 347.591zM691.257 954.311c-109.966 0-199.111-89.145-199.111-199.111s89.145-199.111 199.111-199.111c109.966 0 199.111 89.145 199.111 199.111v0c0 109.966-89.145 199.111-199.111 199.111v0zM812.715 731.364c0-0.034 0.001-0.074 0.001-0.114 0-5.812-4.712-10.524-10.524-10.524-0.020 0-0.040 0-0.061 0h-76.626v-76.743c-0.032-5.768-4.699-10.435-10.464-10.468h-53.479c-5.768 0.032-10.435 4.699-10.468 10.464v76.746h-76.516c-5.788 0.032-10.468 4.732-10.468 10.524 0 0 0 0 0 0v0 53.419c0.096 5.719 4.739 10.323 10.465 10.354h76.746v76.857c0.032 5.768 4.699 10.435 10.464 10.468h53.479c5.768-0.032 10.435-4.699 10.468-10.464v-76.86h76.402c5.768-0.032 10.435-4.699 10.468-10.464v-0.003z" />
<glyph unicode="&#xe911;" glyph-name="easiheat-dark" d="M757.077 432.356c-5.177 15.531-13.141 19.854-18.489 5.291-18.489-50.176-36.068-51.2-62.009-81.977 72.533 238.308 57.287 461.084-181.305 600.974-15.531 10.354-31.118-5.177-20.764-20.708 171.008-295.31-637.212-533.447-145.067-979.228h1.934c-33.109 75.207-62.578 252.245 205.824 492.828 0 0-16.441-146.318 60.814-238.364 59.221-69.063 95.346-156.217 69.063-241.721 0-1.65-1.65-3.3-1.65-4.949-1.65-1.65-1.65-1.65-1.65-3.243-3.444-9.585-7.069-17.617-11.231-25.317l0.479 0.968 13.198-0.796c176.185 150.13 220.331 299.349 90.852 496.242z" />
<glyph unicode="&#xe912;" glyph-name="easiheat-white" d="M757.077 432.356c-5.177 15.531-13.141 19.854-18.489 5.291-18.489-50.176-36.068-51.2-62.009-81.977 72.533 238.308 57.287 461.084-181.305 600.974-15.531 10.354-31.118-5.177-20.764-20.708 171.008-295.31-637.212-533.447-145.067-979.228h1.934c-33.109 75.207-62.578 252.245 205.824 492.828 0 0-16.441-146.318 60.814-238.364 59.221-69.063 95.346-156.217 69.063-241.721 0-1.65-1.65-3.3-1.65-4.949-1.65-1.65-1.65-1.65-1.65-3.243-3.444-9.585-7.069-17.617-11.231-25.317l0.479 0.968 13.198-0.796c176.185 150.13 220.331 299.349 90.852 496.242z" />
<glyph unicode="&#xe913;" glyph-name="flowmetering-dark" d="M1007.218 582.201l-8.818 108.544-17.636 132.722-10.24 52.11-17.067 29.013-20.196 14.45-24.292 5.689-45.511 7.566-102.116 13.596-117.988 12.516h-92.217l-93.696-0.74-92.16-4.551-102.4-9.671-142.222-20.992-31.801-7.282-21.959-14.962-7.111-8.932-5.234-9.557-7.964-31.175-16.327-117.703-9.159-97.451-6.087-151.154 4.892-177.607 10.524-119.467 17.067-123.961 7.111-44.999 12.345-23.95 15.132-13.54 17.806-8.192 47.673-8.704 80.668-11.378 119.467-11.378 72.078-3.812 112.526-1.365 116.622 4.38 145.294 14.108 130.219 21.447 17.806 5.689 16.725 12.402 8.818 12.459 8.306 24.064 7.111 44.316 14.45 114.46 8.192 96.711 5.291 78.336v117.020zM938.951 370.574c-62.578-393.899-595.57-504.092-795.25-151.666-103.879 183.182-57.458 396.231 79.701 545.508l38.286 32.711c149.845 95.687 324.267 118.272 479.175 17.863 122.993-81.791 202.952-219.8 202.952-376.485 0-23.976-1.872-47.514-5.478-70.477l0.329 2.546zM639.090 745.301h-299.975c-71.282-5.689-124.075-73.102-129.991-152.405-3.584-48.412 0-98.418 0-146.944 0-35.84-1.138-69.746 5.689-105.017 27.193-139.833 146.148-237.17 285.184-248.604 132.836-10.98 258.162 83.058 302.478 205.369 24.69 68.267 17.92 141.028 17.067 211.968-0.853 68.949 5.689 137.842-48.412 190.464-48.014 46.478-70.087 45.17-132.039 45.17zM393.33 240.469c-23.341 17.177-38.318 44.542-38.318 75.406s14.977 58.229 38.061 75.225l0.258 0.181v-2.105c17.579-41.586 14.222-100.466 0-148.708zM448.74 321.081c0.985 36.936 31.161 66.503 68.244 66.503 37.703 0 68.267-30.564 68.267-68.267 0-37.695-30.551-68.254-68.243-68.267h-0.001c-37.808 0.478-68.273 31.239-68.273 69.115 0 0.322 0.002 0.643 0.007 0.964l-0.001-0.049zM564.395 451.47c-38.059-9.557-84.764-4.949-123.79 7.168 16.056 23.778 42.906 39.205 73.358 39.205s57.302-15.427 73.159-38.893l0.199-0.312h-1.934c-5.886-2.696-12.877-5.15-20.118-6.981l-0.874-0.187zM442.596 182.158h1.877c40.676 18.432 98.076 14.677 144.896 0-36.75-51.655-109.397-52.736-146.773 0zM636.587 240.356v2.276c-17.863 41.643-14.165 100.693 0 148.651 23.276-17.239 38.199-44.608 38.199-75.463s-14.923-58.224-37.946-75.284l-0.253-0.179zM744.676 548.068c0.004-0.136 0.006-0.297 0.006-0.457 0-9.485-7.61-17.192-17.058-17.349h-428.843c-9.474 0.221-17.070 7.954-17.070 17.46 0 0.122 0.001 0.243 0.004 0.364v-0.018 117.874c-0.001 0.069-0.002 0.15-0.002 0.232 0 9.506 7.595 17.238 17.048 17.46h428.451c0.003 0 0.007 0 0.011 0 9.426 0 17.067-7.641 17.067-17.067 0-0.22-0.004-0.439-0.012-0.657l0.001 0.031z" />
<glyph unicode="&#xe914;" glyph-name="flowmetering-white" d="M1007.218 582.201l-8.818 108.544-17.636 132.722-10.24 52.11-17.067 29.013-20.196 14.45-24.292 5.689-45.511 7.566-102.116 13.596-117.988 12.516h-92.217l-93.696-0.74-92.16-4.551-102.4-9.671-142.222-20.992-31.801-7.282-21.959-14.962-7.111-8.932-5.234-9.557-7.964-31.175-16.327-117.703-9.159-97.451-6.087-151.154 4.892-177.607 10.524-119.467 17.067-123.961 7.111-44.999 12.345-23.95 15.132-13.54 17.806-8.192 47.673-8.704 80.668-11.378 119.467-11.378 72.078-3.812 112.526-1.365 116.622 4.38 145.294 14.108 130.219 21.447 17.806 5.689 16.725 12.402 8.818 12.459 8.306 24.064 7.111 44.316 14.45 114.46 8.192 96.711 5.291 78.336v117.020zM938.951 370.574c-62.578-393.899-595.57-504.092-795.25-151.666-103.879 183.182-57.458 396.231 79.701 545.508l38.286 32.711c149.845 95.687 324.267 118.272 479.175 17.863 122.993-81.791 202.952-219.8 202.952-376.485 0-23.976-1.872-47.514-5.478-70.477l0.329 2.546zM639.090 745.301h-299.975c-71.282-5.689-124.075-73.102-129.991-152.405-3.584-48.412 0-98.418 0-146.944 0-35.84-1.138-69.746 5.689-105.017 27.193-139.833 146.148-237.17 285.184-248.604 132.836-10.98 258.162 83.058 302.478 205.369 24.69 68.267 17.92 141.028 17.067 211.968-0.853 68.949 5.689 137.842-48.412 190.464-48.014 46.478-70.087 45.17-132.039 45.17zM393.33 240.469c-23.341 17.177-38.318 44.542-38.318 75.406s14.977 58.229 38.061 75.225l0.258 0.181v-2.105c17.579-41.586 14.222-100.466 0-148.708zM448.74 321.081c0.985 36.936 31.161 66.503 68.244 66.503 37.703 0 68.267-30.564 68.267-68.267 0-37.695-30.551-68.254-68.243-68.267h-0.001c-37.808 0.478-68.273 31.239-68.273 69.115 0 0.322 0.002 0.643 0.007 0.964l-0.001-0.049zM564.395 451.47c-38.059-9.557-84.764-4.949-123.79 7.168 16.056 23.778 42.906 39.205 73.358 39.205s57.302-15.427 73.159-38.893l0.199-0.312h-1.934c-5.886-2.696-12.877-5.15-20.118-6.981l-0.874-0.187zM442.596 182.158h1.877c40.676 18.432 98.076 14.677 144.896 0-36.75-51.655-109.397-52.736-146.773 0zM636.587 240.356v2.276c-17.863 41.643-14.165 100.693 0 148.651 23.276-17.239 38.199-44.608 38.199-75.463s-14.923-58.224-37.946-75.284l-0.253-0.179zM744.676 548.068c0.004-0.136 0.006-0.297 0.006-0.457 0-9.485-7.61-17.192-17.058-17.349h-428.843c-9.474 0.221-17.070 7.954-17.070 17.46 0 0.122 0.001 0.243 0.004 0.364v-0.018 117.874c-0.001 0.069-0.002 0.15-0.002 0.232 0 9.506 7.595 17.238 17.048 17.46h428.451c0.003 0 0.007 0 0.011 0 9.426 0 17.067-7.641 17.067-17.067 0-0.22-0.004-0.439-0.012-0.657l0.001 0.031z" />
<glyph unicode="&#xe915;" glyph-name="pressure-reducing-valve-dark" d="M351.118 462.677l-14.905 8.078c-2.348 1.313-5.149 2.091-8.131 2.105h-29.302c-10.175-6.4-16.838-17.569-16.838-30.293s6.663-23.893 16.69-30.206l0.148-0.087h29.753c0.018 0 0.040 0 0.061 0 2.671 0 5.194 0.63 7.43 1.75l-0.096-0.043 17.465 8.533zM678.172 422.741l17.465-8.533c2.161-1.070 4.704-1.7 7.393-1.707h29.755c10.175 6.4 16.838 17.569 16.838 30.293s-6.663 23.893-16.69 30.206l-0.148 0.087h-29.241c-3.005-0.003-5.828-0.783-8.279-2.149l0.087 0.044-14.905-8.306zM493.34 337.124c-0.686-2.109-1.081-4.535-1.081-7.054 0-0.040 0-0.080 0-0.12v0.006c0-0.047-0.001-0.103-0.001-0.158 0-2.844 0.522-5.567 1.475-8.076l-0.052 0.156zM255.033 32.199h40.334v319.374l-40.334 0.284v-319.659zM451.812-9.899v-6.713c0 0 0 0 0 0 0-3.707 3.005-6.713 6.713-6.713 0.020 0 0.040 0 0.060 0h114.401c3.707 0 6.713 3.005 6.713 6.713v0 0 6.713zM288.654 442.766c0.032-7.422 6.056-13.426 13.483-13.426 7.446 0 13.483 6.036 13.483 13.483s-6.036 13.483-13.483 13.483v0c0 0 0 0 0 0-7.446 0-13.483-6.036-13.483-13.483 0-0.020 0-0.040 0-0.060v0.003zM715.947 442.766c0.032-7.422 6.056-13.426 13.483-13.426 7.446 0 13.483 6.036 13.483 13.483s-6.036 13.483-13.483 13.483v0c0 0 0 0 0 0-7.446 0-13.483-6.036-13.483-13.483 0-0.020 0-0.040 0-0.060v0.003zM670.72 422.571c-1.144-1.853-1.822-4.099-1.822-6.503 0-0.074 0.001-0.147 0.002-0.221v0.011zM360.846 422.571c1.179-1.879 1.878-4.163 1.878-6.61 0-0.036 0-0.072 0-0.109v0.006-4.722c0-0.006 0-0.012 0-0.019 0-15.193 10.060-28.036 23.882-32.231l0.238-0.062c5.602-1.677 9.614-6.785 9.614-12.831 0-0.009 0-0.018 0-0.027v0.001h238.933c0 0.008 0 0.017 0 0.026 0 6.045 4.013 11.153 9.52 12.806l0.095 0.024c14.032 4.296 24.061 17.133 24.064 32.313v0 11.719zM362.724 422.571c1.195-1.991 0-4.324 0-6.713v-4.722c0-0.006 0-0.012 0-0.019 0-15.193 10.060-28.036 23.882-32.231l0.238-0.062c5.602-1.677 9.614-6.785 9.614-12.831 0-0.009 0-0.018 0-0.027v0.001h238.933c0 0.008 0 0.017 0 0.026 0 6.045 4.013 11.153 9.52 12.806l0.095 0.024c14.032 4.296 24.061 17.133 24.064 32.313v0 11.378zM655.474 465.067v17.522c-0.032 14.868-12.093 26.908-26.965 26.908 0 0 0 0 0 0h-225.394c0 0 0 0 0 0-14.873 0-26.933-12.040-26.965-26.905v-17.525zM416.54 509.497h-13.426c0 0 0 0 0 0-14.873 0-26.933-12.040-26.965-26.905v-0.003zM495.616 918.926h40.391v-21.902h-40.391v21.902zM416.54 510.066v0c0 0 0 0 0 0 11.122 0 20.139 9.016 20.139 20.139 0 0.040 0 0.080 0 0.12v-0.006 339.797c0.032 14.868 12.093 26.908 26.965 26.908 0 0 0 0 0 0h104.277c14.861 0 26.908-12.047 26.908-26.908v0 0-339.797c0-11.185 9.067-20.252 20.252-20.252v0 0zM719.36 32.199h40.391v319.659h-40.391v-319.659zM396.345 257.65v108.089h238.933v-109.511l-0.341-128.228-4.494-14.848c-3.276-10.32-12.335-17.847-23.278-18.823l-0.103-0.007c-4.986-0.428-8.912-4.432-9.215-9.415l-0.001-0.028c-0.494-7.956-7.068-14.222-15.105-14.222-0.010 0-0.019 0-0.029 0h-137.442c-8.021 0-11.378 6.258-12.060 14.222-0.304 5.011-4.23 9.016-9.179 9.441l-0.037 0.003c-11.059 0.951-20.133 8.493-23.33 18.64l-0.052 0.19-4.494 14.848zM401.522 128.114h-89.316c-9.426 0-17.067-7.641-17.067-17.067v0 161.735c0-9.426 7.641-17.067 17.067-17.067v0h88.576zM630.386 256h72.135c9.426 0 17.067 7.641 17.067 17.067v0 0-161.508c0 9.426-7.641 17.067-17.067 17.067v0 0h-72.476zM488.903 950.898v-31.972h53.817v31.972c0 4.65-3.77 8.42-8.42 8.42v0h-36.978c-4.65 0-8.42-3.77-8.42-8.42v0zM515.982 322.332c4.21 0 7.623 3.413 7.623 7.623s-3.413 7.623-7.623 7.623v0 0zM541.013-23.324h25.486v-40.676h-25.486v40.676zM465.010-23.211h25.543v-40.676h-25.543v40.676zM490.553-23.324h50.46v-40.676h-50.46v40.676zM448.626 70.656h134.428v-80.555h-134.428v80.555zM493.682 321.877c3.403-9.051 11.986-15.375 22.047-15.375 12.976 0 23.495 10.519 23.495 23.495s-10.519 23.495-23.495 23.495c-10.431 0-19.274-6.797-22.342-16.203l-0.047-0.166zM615.083 509.497h13.426c0 0 0 0 0 0 14.873 0 26.933-12.040 26.965-26.905v-19.743h-278.756v19.74zM328.988 463.417h373.874v-41.244h-373.874v41.244zM493.284 337.579c-0.71-2.122-1.125-4.566-1.138-7.105v-0.006c0.001-2.923 0.544-5.719 1.533-8.294l-0.054 0.158zM214.585 32.313h40.334v319.431l-40.334-0.284v-319.147zM759.637 192.057v-159.858h40.448v319.659h-40.448v-159.801zM493.625 322.332c3.403-9.051 11.986-15.375 22.047-15.375 12.976 0 23.495 10.519 23.495 23.495s-10.519 23.495-23.495 23.495c-10.431 0-19.274-6.797-22.342-16.203l-0.047-0.166z" />
<glyph unicode="&#xe916;" glyph-name="pressure-reducing-valve-white" d="M351.118 462.677l-14.905 8.078c-2.348 1.313-5.149 2.091-8.131 2.105h-29.302c-10.175-6.4-16.838-17.569-16.838-30.293s6.663-23.893 16.69-30.206l0.148-0.087h29.753c0.018 0 0.040 0 0.061 0 2.671 0 5.194 0.63 7.43 1.75l-0.096-0.043 17.465 8.533zM678.172 422.741l17.465-8.533c2.161-1.070 4.704-1.7 7.393-1.707h29.755c10.175 6.4 16.838 17.569 16.838 30.293s-6.663 23.893-16.69 30.206l-0.148 0.087h-29.241c-3.005-0.003-5.828-0.783-8.279-2.149l0.087 0.044-14.905-8.306zM493.34 337.124c-0.686-2.109-1.081-4.535-1.081-7.054 0-0.040 0-0.080 0-0.12v0.006c0-0.047-0.001-0.103-0.001-0.158 0-2.844 0.522-5.567 1.475-8.076l-0.052 0.156zM255.033 32.199h40.334v319.374l-40.334 0.284v-319.659zM451.812-9.899v-6.713c0 0 0 0 0 0 0-3.707 3.005-6.713 6.713-6.713 0.020 0 0.040 0 0.060 0h114.401c3.707 0 6.713 3.005 6.713 6.713v0 0 6.713zM288.654 442.766c0.032-7.422 6.056-13.426 13.483-13.426 7.446 0 13.483 6.036 13.483 13.483s-6.036 13.483-13.483 13.483v0c0 0 0 0 0 0-7.446 0-13.483-6.036-13.483-13.483 0-0.020 0-0.040 0-0.060v0.003zM715.947 442.766c0.032-7.422 6.056-13.426 13.483-13.426 7.446 0 13.483 6.036 13.483 13.483s-6.036 13.483-13.483 13.483v0c0 0 0 0 0 0-7.446 0-13.483-6.036-13.483-13.483 0-0.020 0-0.040 0-0.060v0.003zM670.72 422.571c-1.144-1.853-1.822-4.099-1.822-6.503 0-0.074 0.001-0.147 0.002-0.221v0.011zM360.846 422.571c1.179-1.879 1.878-4.163 1.878-6.61 0-0.036 0-0.072 0-0.109v0.006-4.722c0-0.006 0-0.012 0-0.019 0-15.193 10.060-28.036 23.882-32.231l0.238-0.062c5.602-1.677 9.614-6.785 9.614-12.831 0-0.009 0-0.018 0-0.027v0.001h238.933c0 0.008 0 0.017 0 0.026 0 6.045 4.013 11.153 9.52 12.806l0.095 0.024c14.032 4.296 24.061 17.133 24.064 32.313v0 11.719zM362.724 422.571c1.195-1.991 0-4.324 0-6.713v-4.722c0-0.006 0-0.012 0-0.019 0-15.193 10.060-28.036 23.882-32.231l0.238-0.062c5.602-1.677 9.614-6.785 9.614-12.831 0-0.009 0-0.018 0-0.027v0.001h238.933c0 0.008 0 0.017 0 0.026 0 6.045 4.013 11.153 9.52 12.806l0.095 0.024c14.032 4.296 24.061 17.133 24.064 32.313v0 11.378zM655.474 465.067v17.522c-0.032 14.868-12.093 26.908-26.965 26.908 0 0 0 0 0 0h-225.394c0 0 0 0 0 0-14.873 0-26.933-12.040-26.965-26.905v-17.525zM416.54 509.497h-13.426c0 0 0 0 0 0-14.873 0-26.933-12.040-26.965-26.905v-0.003zM495.616 918.926h40.391v-21.902h-40.391v21.902zM416.54 510.066v0c0 0 0 0 0 0 11.122 0 20.139 9.016 20.139 20.139 0 0.040 0 0.080 0 0.12v-0.006 339.797c0.032 14.868 12.093 26.908 26.965 26.908 0 0 0 0 0 0h104.277c14.861 0 26.908-12.047 26.908-26.908v0 0-339.797c0-11.185 9.067-20.252 20.252-20.252v0 0zM719.36 32.199h40.391v319.659h-40.391v-319.659zM396.345 257.65v108.089h238.933v-109.511l-0.341-128.228-4.494-14.848c-3.276-10.32-12.335-17.847-23.278-18.823l-0.103-0.007c-4.986-0.428-8.912-4.432-9.215-9.415l-0.001-0.028c-0.494-7.956-7.068-14.222-15.105-14.222-0.010 0-0.019 0-0.029 0h-137.442c-8.021 0-11.378 6.258-12.060 14.222-0.304 5.011-4.23 9.016-9.179 9.441l-0.037 0.003c-11.059 0.951-20.133 8.493-23.33 18.64l-0.052 0.19-4.494 14.848zM401.522 128.114h-89.316c-9.426 0-17.067-7.641-17.067-17.067v0 161.735c0-9.426 7.641-17.067 17.067-17.067v0h88.576zM630.386 256h72.135c9.426 0 17.067 7.641 17.067 17.067v0 0-161.508c0 9.426-7.641 17.067-17.067 17.067v0 0h-72.476zM488.903 950.898v-31.972h53.817v31.972c0 4.65-3.77 8.42-8.42 8.42v0h-36.978c-4.65 0-8.42-3.77-8.42-8.42v0zM515.982 322.332c4.21 0 7.623 3.413 7.623 7.623s-3.413 7.623-7.623 7.623v0 0zM541.013-23.324h25.486v-40.676h-25.486v40.676zM465.010-23.211h25.543v-40.676h-25.543v40.676zM490.553-23.324h50.46v-40.676h-50.46v40.676zM448.626 70.656h134.428v-80.555h-134.428v80.555zM493.682 321.877c3.403-9.051 11.986-15.375 22.047-15.375 12.976 0 23.495 10.519 23.495 23.495s-10.519 23.495-23.495 23.495c-10.431 0-19.274-6.797-22.342-16.203l-0.047-0.166zM615.083 509.497h13.426c0 0 0 0 0 0 14.873 0 26.933-12.040 26.965-26.905v-19.743h-278.756v19.74zM328.988 463.417h373.874v-41.244h-373.874v41.244zM493.284 337.579c-0.71-2.122-1.125-4.566-1.138-7.105v-0.006c0.001-2.923 0.544-5.719 1.533-8.294l-0.054 0.158zM214.585 32.313h40.334v319.431l-40.334-0.284v-319.147zM759.637 192.057v-159.858h40.448v319.659h-40.448v-159.801zM493.625 322.332c3.403-9.051 11.986-15.375 22.047-15.375 12.976 0 23.495 10.519 23.495 23.495s-10.519 23.495-23.495 23.495c-10.431 0-19.274-6.797-22.342-16.203l-0.047-0.166z" />
<glyph unicode="&#xe917;" glyph-name="safety-valve-dark" d="M676.978 16.384h-82.204c98.043 36.179 166.688 128.819 166.688 237.492 0 108.949-68.994 201.784-165.674 237.196l-1.753 0.562c7.534 4.801 12.459 13.113 12.459 22.575 0 0.064 0 0.127-0.001 0.191v-0.010 204.8c-0.001 13.338-9.81 24.385-22.608 26.321l-0.147 0.018v191.716c0 12.568-10.188 22.756-22.756 22.756v0h-94.492c-11.345-0.048-20.727-8.389-22.398-19.272l-0.016-0.127c-2.112 1.547-4.756 2.482-7.618 2.503h-113.783c0 0 0 0 0 0-7.226 0-13.084-5.858-13.084-13.084 0-0.020 0-0.040 0-0.060v0.003-58.994c0-7.226 5.858-13.084 13.084-13.084v0h21.276v-292.295h38.059v292.011h54.329c2.785 0.086 5.339 1.011 7.434 2.53l-0.039-0.027v-114.176h-3.3c-14.767 0-26.738-11.971-26.738-26.738v0-204.8c0-0.022 0-0.047 0-0.072 0-9.124 4.609-17.172 11.627-21.941l0.092-0.059c-99.172-35.56-168.835-128.753-168.835-238.217 0-108.7 68.694-201.355 165.038-236.923l1.749-0.565h-93.412c-11.688 0-21.163-9.475-21.163-21.163v0-38.059c-0.001-0.068-0.001-0.148-0.001-0.228 0-11.688 9.475-21.163 21.163-21.163 0 0 0.001 0 0.001 0h347.022c0 0 0 0 0 0 11.699 0 21.187 9.468 21.219 21.16v38.062c-0.032 11.695-9.52 21.163-21.219 21.163 0 0 0 0 0 0v0zM407.95 131.812c0.864-2.593 1.382-5.581 1.422-8.684v-0.020c0-16.621-13.474-30.094-30.094-30.094s-30.094 13.474-30.094 30.094c0 16.621 13.474 30.094 30.094 30.094v0c3.082-0.033 6.031-0.551 8.791-1.481l-0.201 0.059c-23.261 27.398-37.407 63.169-37.407 102.244 0 38.514 13.742 73.818 36.591 101.277l-0.208-0.257c-2.31-0.691-4.969-1.104-7.718-1.138h-0.018c-16.448 0.225-29.696 13.611-29.696 30.092 0 16.621 13.474 30.094 30.094 30.094s30.093-13.472 30.094-30.091v0c-0.029-2.787-0.443-5.465-1.19-8.001l0.052 0.207c27.152 22.553 62.37 36.239 100.785 36.239 37.559 0 72.062-13.083 99.2-34.941l-0.305 0.238c-0.412 1.872-0.66 4.029-0.683 6.241v0.017c0 0.017 0 0.037 0 0.057 0 16.652 13.499 30.151 30.151 30.151s30.151-13.499 30.151-30.151c0-16.652-13.499-30.151-30.151-30.151-0.020 0-0.040 0-0.060 0h0.003c-2.022 0.016-3.986 0.222-5.887 0.602l0.199-0.033c22.383-27.138 35.957-62.266 35.957-100.564 0-38.832-13.955-74.404-37.123-101.976l0.199 0.243c1.927 0.458 4.143 0.727 6.42 0.74h0.009c0.123 0.002 0.267 0.003 0.412 0.003 16.872 0 30.549-13.677 30.549-30.549s-13.677-30.549-30.549-30.549c-16.872 0-30.549 13.677-30.549 30.549 0 2.77 0.369 5.454 1.060 8.005l-0.049-0.214c-26.883-21.761-61.495-34.935-99.184-34.935-38.543 0-73.867 13.778-101.318 36.676l0.253-0.205zM578.731 253.895c0-38.457-31.175-69.632-69.632-69.632s-69.632 31.175-69.632 69.632c0 38.457 31.175 69.632 69.632 69.632s69.632-31.175 69.632-69.632z" />
<glyph unicode="&#xe918;" glyph-name="safety-valve-white" d="M676.978 16.384h-82.204c98.043 36.179 166.688 128.819 166.688 237.492 0 108.949-68.994 201.784-165.674 237.196l-1.753 0.562c7.534 4.801 12.459 13.113 12.459 22.575 0 0.064 0 0.127-0.001 0.191v-0.010 204.8c-0.001 13.338-9.81 24.385-22.608 26.321l-0.147 0.018v191.716c0 12.568-10.188 22.756-22.756 22.756v0h-94.492c-11.345-0.048-20.727-8.389-22.398-19.272l-0.016-0.127c-2.112 1.547-4.756 2.482-7.618 2.503h-113.783c0 0 0 0 0 0-7.226 0-13.084-5.858-13.084-13.084 0-0.020 0-0.040 0-0.060v0.003-58.994c0-7.226 5.858-13.084 13.084-13.084v0h21.276v-292.295h38.059v292.011h54.329c2.785 0.086 5.339 1.011 7.434 2.53l-0.039-0.027v-114.176h-3.3c-14.767 0-26.738-11.971-26.738-26.738v0-204.8c0-0.022 0-0.047 0-0.072 0-9.124 4.609-17.172 11.627-21.941l0.092-0.059c-99.172-35.56-168.835-128.753-168.835-238.217 0-108.7 68.694-201.355 165.038-236.923l1.749-0.565h-93.412c-11.688 0-21.163-9.475-21.163-21.163v0-38.059c-0.001-0.068-0.001-0.148-0.001-0.228 0-11.688 9.475-21.163 21.163-21.163 0 0 0.001 0 0.001 0h347.022c0 0 0 0 0 0 11.699 0 21.187 9.468 21.219 21.16v38.062c-0.032 11.695-9.52 21.163-21.219 21.163 0 0 0 0 0 0v0zM407.95 131.812c0.864-2.593 1.382-5.581 1.422-8.684v-0.020c0-16.621-13.474-30.094-30.094-30.094s-30.094 13.474-30.094 30.094c0 16.621 13.474 30.094 30.094 30.094v0c3.082-0.033 6.031-0.551 8.791-1.481l-0.201 0.059c-23.261 27.398-37.407 63.169-37.407 102.244 0 38.514 13.742 73.818 36.591 101.277l-0.208-0.257c-2.31-0.691-4.969-1.104-7.718-1.138h-0.018c-16.448 0.225-29.696 13.611-29.696 30.092 0 16.621 13.474 30.094 30.094 30.094s30.093-13.472 30.094-30.091v0c-0.029-2.787-0.443-5.465-1.19-8.001l0.052 0.207c27.152 22.553 62.37 36.239 100.785 36.239 37.559 0 72.062-13.083 99.2-34.941l-0.305 0.238c-0.412 1.872-0.66 4.029-0.683 6.241v0.017c0 0.017 0 0.037 0 0.057 0 16.652 13.499 30.151 30.151 30.151s30.151-13.499 30.151-30.151c0-16.652-13.499-30.151-30.151-30.151-0.020 0-0.040 0-0.060 0h0.003c-2.022 0.016-3.986 0.222-5.887 0.602l0.199-0.033c22.383-27.138 35.957-62.266 35.957-100.564 0-38.832-13.955-74.404-37.123-101.976l0.199 0.243c1.927 0.458 4.143 0.727 6.42 0.74h0.009c0.123 0.002 0.267 0.003 0.412 0.003 16.872 0 30.549-13.677 30.549-30.549s-13.677-30.549-30.549-30.549c-16.872 0-30.549 13.677-30.549 30.549 0 2.77 0.369 5.454 1.060 8.005l-0.049-0.214c-26.883-21.761-61.495-34.935-99.184-34.935-38.543 0-73.867 13.778-101.318 36.676l0.253-0.205zM578.731 253.895c0-38.457-31.175-69.632-69.632-69.632s-69.632 31.175-69.632 69.632c0 38.457 31.175 69.632 69.632 69.632s69.632-31.175 69.632-69.632z" />
<glyph unicode="&#xe919;" glyph-name="shell-tube-dark" d="M905.102 93.468l-21.675 50.46c-3.714 8.421-11.989 14.193-21.612 14.193-3.353 0-6.542-0.701-9.43-1.964l0.152 0.059-72.192-31.004-369.152 833.82-156.16-67.3 208.555-470.983-58.425-25.145-31.004 72.078c-3.724 8.439-12.018 14.223-21.663 14.223-3.333 0-6.505-0.691-9.38-1.937l0.153 0.059-50.46-21.675c-8.435-3.76-14.208-12.072-14.208-21.731 0-3.328 0.685-6.496 1.923-9.371l-0.059 0.154 124.644-290.133c3.73-8.424 12.017-14.195 21.651-14.195 3.36 0 6.555 0.702 9.448 1.967l-0.152-0.059 50.46 21.675c8.421 3.714 14.193 11.989 14.193 21.612 0 3.353-0.701 6.542-1.964 9.43l0.059-0.152-30.948 72.078 59.961 25.828 96.37-217.6-61.554-26.283c-8.447-3.703-14.241-11.992-14.241-21.633 0-3.345 0.697-6.527 1.955-9.409l-0.059 0.152 21.732-50.46c3.724-8.439 12.018-14.223 21.663-14.223 3.333 0 6.505 0.691 9.38 1.937l-0.153-0.059 290.133 124.644c8.321 3.772 14.004 12.006 14.004 21.567 0 3.392-0.715 6.617-2.003 9.532l0.060-0.151zM450.56 655.076c-6.8-3.003-14.729-4.751-23.066-4.751-32.236 0-58.368 26.132-58.368 58.368s26.132 58.368 58.368 58.368c23.897 0 44.44-14.361 53.469-34.924l0.147-0.375c3.004-6.8 4.752-14.731 4.752-23.069 0-23.898-14.363-44.442-34.927-53.47l-0.375-0.147zM473.998 467.342c-2.964 6.76-4.689 14.64-4.689 22.922 0 32.236 26.132 58.368 58.368 58.368s58.368-26.132 58.368-58.368c0-23.921-14.39-44.481-34.985-53.496l-0.375-0.146c-6.8-3.004-14.731-4.752-23.069-4.752-23.898 0-44.442 14.363-53.47 34.927l-0.147 0.375zM646.258 218.283c-6.777-2.981-14.678-4.716-22.984-4.716-32.236 0-58.368 26.132-58.368 58.368s26.132 58.368 58.368 58.368c23.976 0 44.575-14.456 53.558-35.128l0.146-0.377c2.987-6.784 4.726-14.693 4.726-23.008 0-23.953-14.429-44.537-35.069-53.532l-0.376-0.146z" />
<glyph unicode="&#xe91a;" glyph-name="shell-tube-white" d="M905.102 93.468l-21.675 50.46c-3.714 8.421-11.989 14.193-21.612 14.193-3.353 0-6.542-0.701-9.43-1.964l0.152 0.059-72.192-31.004-369.152 833.82-156.16-67.3 208.555-470.983-58.425-25.145-31.004 72.078c-3.724 8.439-12.018 14.223-21.663 14.223-3.333 0-6.505-0.691-9.38-1.937l0.153 0.059-50.46-21.675c-8.435-3.76-14.208-12.072-14.208-21.731 0-3.328 0.685-6.496 1.923-9.371l-0.059 0.154 124.644-290.133c3.73-8.424 12.017-14.195 21.651-14.195 3.36 0 6.555 0.702 9.448 1.967l-0.152-0.059 50.46 21.675c8.421 3.714 14.193 11.989 14.193 21.612 0 3.353-0.701 6.542-1.964 9.43l0.059-0.152-30.948 72.078 59.961 25.828 96.37-217.6-61.554-26.283c-8.447-3.703-14.241-11.992-14.241-21.633 0-3.345 0.697-6.527 1.955-9.409l-0.059 0.152 21.732-50.46c3.724-8.439 12.018-14.223 21.663-14.223 3.333 0 6.505 0.691 9.38 1.937l-0.153-0.059 290.133 124.644c8.321 3.772 14.004 12.006 14.004 21.567 0 3.392-0.715 6.617-2.003 9.532l0.060-0.151zM450.56 655.076c-6.8-3.003-14.729-4.751-23.066-4.751-32.236 0-58.368 26.132-58.368 58.368s26.132 58.368 58.368 58.368c23.897 0 44.44-14.361 53.469-34.924l0.147-0.375c3.004-6.8 4.752-14.731 4.752-23.069 0-23.898-14.363-44.442-34.927-53.47l-0.375-0.147zM473.998 467.342c-2.964 6.76-4.689 14.64-4.689 22.922 0 32.236 26.132 58.368 58.368 58.368s58.368-26.132 58.368-58.368c0-23.921-14.39-44.481-34.985-53.496l-0.375-0.146c-6.8-3.004-14.731-4.752-23.069-4.752-23.898 0-44.442 14.363-53.47 34.927l-0.147 0.375zM646.258 218.283c-6.777-2.981-14.678-4.716-22.984-4.716-32.236 0-58.368 26.132-58.368 58.368s26.132 58.368 58.368 58.368c23.976 0 44.575-14.456 53.558-35.128l0.146-0.377c2.987-6.784 4.726-14.693 4.726-23.008 0-23.953-14.429-44.537-35.069-53.532l-0.376-0.146z" />
<glyph unicode="&#xe91b;" glyph-name="steam-generation-efficiency-dark" d="M-4.21 500.85h173.796v-564.85h-173.796v564.85zM361.415 622.478h173.796v-686.478h-173.796v686.478zM738.588 744.164h173.796v-808.164h-173.796v808.164zM1017.23 667.079h-390.77l199.111 292.921z" />
<glyph unicode="&#xe91c;" glyph-name="steam-generation-efficiency-white" d="M-4.21 500.85h173.796v-564.85h-173.796v564.85zM361.415 622.478h173.796v-686.478h-173.796v686.478zM738.588 744.164h173.796v-808.164h-173.796v808.164zM1017.23 667.079h-390.77l199.111 292.921z" />
</font>
</defs>
</svg>
